<svg viewBox="0 0 200 200" xmlns="http://www.w3.org/2000/svg"><g fill="#83817f"><path d="m147.45477 26.5h-78.53434a28.06628 28.06628 0 0 0 -24.25516 14.01714l-26.88559 46.66733h-17.20214v8.67022h12.208l-3.77488 6.55206v49.46851a21.64866 21.64866 0 0 0 21.62477 21.62474h13.31578l-.13265-25.31072h112.5802v25.31072h13.16055a21.64866 21.64866 0 0 0 21.62475-21.62474v-49.46851l-3.77488-6.55206h12.01328v-8.67022h-17.0074l-19.98215-34.68475h-10.00659l30.08752 52.227v47.14855a12.969 12.969 0 0 1 -12.95453 12.95452h-4.49031v-25.31072h-129.96581l.13265 25.31071h-4.60041a12.969 12.969 0 0 1 -12.95453-12.95452v-47.14855l34.49743-59.88152a19.3709 19.3709 0 0 1 16.7421-9.675h64.4791v-.00579h19.04654z"/><path d="m52.096 95.814 8.312 25.364h9.128l-5.473-16.694h72.071l-5.472 16.694h9.127l8.312-25.364z"/></g></svg>