<svg id="Capa_1" data-name="Capa 1" xmlns="http://www.w3.org/2000/svg" viewBox="0 0 200 200"><defs><style>.cls-1{fill:#83817f;}</style></defs><title>mantenimiento-SEAT-service</title><path class="cls-1" d="M178.36482,99.16015l-10.30075,10.302-1.66818-.66139-.5373-1.443L176.2054,97.01352l-4.88173-2.43575A20.52718,20.52718,0,0,0,142.458,118.69219L107.1678,149.04694l12.39878,12.39749a8.32607,8.32607,0,0,0,5.95377,2.37946h.023a9.45709,9.45709,0,0,0,6.65737-2.74021l23.78181-28.56248a20.52982,20.52982,0,0,0,24.75918-28.2951Zm-7.251,22.7392a12.64775,12.64775,0,0,1-14.58123,2.39609l-2.78115-1.37907L126.53865,155.625a1.50881,1.50881,0,0,1-1.41744.26225l-6.40919-6.40791,33.182-28.54072-1.23834-2.69033a12.67725,12.67725,0,0,1,11.17067-17.96876l-5.08642,5.08514,3.50523,9.45132,9.72764,3.85191,4.81521-4.81649A12.68059,12.68059,0,0,1,171.11387,121.89935Z"/><path class="cls-1" d="M177.50259,73.04878H165.55668L146.7308,40.37166h-9.07137L156.484,73.04878H89.84892v6.58829H46.70649l7.53368,22.99473H62.512L57.55479,87.497H89.84892v31.76067H31.30141l.11769,22.94516H27.25121A11.75686,11.75686,0,0,1,15.50743,130.459V87.717L46.78069,33.432a17.56051,17.56051,0,0,1,15.17738-8.77074H120.4109v-.0048h17.26644l-4.52481-7.85509H61.95807A25.44321,25.44321,0,0,0,39.96981,29.5085L15.597,71.81427H0v7.8599H11.06961L7.64753,85.61386V130.459a19.62535,19.62535,0,0,0,19.60368,19.60367H39.31994l-.1177-22.94515H89.84892v33.58492a22.52336,22.52336,0,0,0,22.49741,22.49613H200V95.54491A22.52336,22.52336,0,0,0,177.50259,73.04878Zm14.63752,102.28991H112.34633a14.65241,14.65241,0,0,1-14.63752-14.63624V80.90867h79.79378a14.65241,14.65241,0,0,1,14.63752,14.63624Z"/></svg>