<svg id="Capa_1" data-name="Capa 1" xmlns="http://www.w3.org/2000/svg" viewBox="0 0 200 200"><defs><style>.cls-1{fill:#83817f;}</style></defs><title>file</title><rect class="cls-1" x="45.46168" y="63.62115" width="109.0879" height="9.07636"/><rect class="cls-1" x="45.46168" y="90.8988" width="109.0879" height="9.07636"/><rect class="cls-1" x="45.46168" y="118.17784" width="109.08791" height="9.07636"/><rect class="cls-1" x="45.46168" y="145.44266" width="109.0879" height="9.09391"/><path class="cls-1" d="M181.82151,9.08283V0H39.89993A21.71927,21.71927,0,0,0,18.20471,21.69375L18.17849,200l141.83589-.031h.01478A21.78637,21.78637,0,0,0,181.813,178.18216l.00849-150.918h-9.07636l-.00849,150.918a12.71018,12.71018,0,0,1-12.71341,12.71045h-.00591l-132.76249.02807.02622-169.22693A12.632,12.632,0,0,1,39.89993,9.07636H172.74515v.00647Z"/></svg>